HIERARCHY
ROOT hip
{
  OFFSET 0 0 0
  CHANNELS 6 Xposition Yposition Zposition Zrotation Yrotation Xrotation
  JOINT abdomen
  {
    OFFSET 0 20.6881 -0.73152
    CHANNELS 3 Zrotation Xrotation Yrotation
    JOINT chest
    {
      OFFSET 0 11.7043 -0.48768
      CHANNELS 3 Zrotation Xrotation Yrotation
      JOINT neck
      {
        OFFSET 0 22.1894 -2.19456
        CHANNELS 3 Zrotation Xrotation Yrotation
        JOINT head
        {
          OFFSET -0.24384 7.07133 1.2192
          CHANNELS 3 Zrotation Xrotation Yrotation
          JOINT leftEye
          {
            OFFSET 4.14528 8.04674 8.04672
            CHANNELS 3 Zrotation Xrotation Yrotation
            End Site
            {
              OFFSET 1 0 0
            }
          }
          JOINT rightEye
          {
            OFFSET -3.6576 8.04674 8.04672
            CHANNELS 3 Zrotation Xrotation Yrotation
            End Site
            {
              OFFSET 1 0 0
            }
          }
        }
      }
      JOINT rCollar
      {
        OFFSET -2.68224 19.2634 -4.8768
        CHANNELS 3 Zrotation Xrotation Yrotation
        JOINT rShldr
        {
          OFFSET -8.77824 -1.95073 1.46304
          CHANNELS 3 Zrotation Xrotation Yrotation
          JOINT rForeArm
          {
            OFFSET -28.1742 -1.7115 0.48768
            CHANNELS 3 Zrotation Xrotation Yrotation
            JOINT rHand
            {
              OFFSET -22.5879 0.773209 7.07136
              CHANNELS 3 Zrotation Xrotation Yrotation
              JOINT rThumb1
              {
                OFFSET -1.2192 -0.487915 3.41376
                CHANNELS 3 Zrotation Xrotation Yrotation
                JOINT rThumb2
                {
                  OFFSET -3.37035 -0.52449 3.41376
                  CHANNELS 3 Zrotation Xrotation Yrotation
                  End Site
                  {
                    OFFSET -1.78271 -1.18214 1.43049
                  }
                }
              }
              JOINT rIndex1
              {
                OFFSET -7.75947 0.938293 5.60832
                CHANNELS 3 Zrotation Xrotation Yrotation
                JOINT rIndex2
                {
                  OFFSET -2.54057 -0.884171 1.56538
                  CHANNELS 3 Zrotation Xrotation Yrotation
                  End Site
                  {
                    OFFSET -1.62519 -0.234802 1.16502
                  }
                }
              }
              JOINT rMid1
              {
                OFFSET -8.24714 1.18213 3.41376
                CHANNELS 3 Zrotation Xrotation Yrotation
                JOINT rMid2
                {
                  OFFSET -3.10165 -0.590103 1.0647
                  CHANNELS 3 Zrotation Xrotation Yrotation
                  End Site
                  {
                    OFFSET -2.48547 -0.328903 0.83742
                  }
                }
              }
              JOINT rRing1
              {
                OFFSET -8.82822 0.546677 1.51678
                CHANNELS 3 Zrotation Xrotation Yrotation
                JOINT rRing2
                {
                  OFFSET -2.60934 -0.819778 -0.0198488
                  CHANNELS 3 Zrotation Xrotation Yrotation
                  End Site
                  {
                    OFFSET -2.33842 -0.294052 0.168128
                  }
                }
              }
              JOINT rPinky1
              {
                OFFSET -8.27202 -0.0477905 -0.4584
                CHANNELS 3 Zrotation Xrotation Yrotation
                JOINT rPinky2
                {
                  OFFSET -1.82734 -0.647385 -0.700984
                  CHANNELS 3 Zrotation Xrotation Yrotation
                  End Site
                  {
                    OFFSET -1.69225 -0.51767 -0.607171
                  }
                }
              }
            }
          }
        }
      }
      JOINT lCollar
      {
        OFFSET 2.68224 19.2634 -4.8768
        CHANNELS 3 Zrotation Xrotation Yrotation
        JOINT lShldr
        {
          OFFSET 8.77824 -1.95073 1.46304
          CHANNELS 3 Zrotation Xrotation Yrotation
          JOINT lForeArm
          {
            OFFSET 28.1742 -1.7115 0.48768
            CHANNELS 3 Zrotation Xrotation Yrotation
            JOINT lHand
            {
              OFFSET 22.5879 0.773209 7.07136
              CHANNELS 3 Zrotation Xrotation Yrotation
              JOINT lThumb1
              {
                OFFSET 1.2192 -0.487915 3.41376
                CHANNELS 3 Zrotation Xrotation Yrotation
                JOINT lThumb2
                {
                  OFFSET 3.37035 -0.52449 3.41376
                  CHANNELS 3 Zrotation Xrotation Yrotation
                  End Site
                  {
                    OFFSET 1.78271 -1.18214 1.43049
                  }
                }
              }
              JOINT lIndex1
              {
                OFFSET 7.75947 0.938293 5.60832
                CHANNELS 3 Zrotation Xrotation Yrotation
                JOINT lIndex2
                {
                  OFFSET 2.54057 -0.884171 1.56538
                  CHANNELS 3 Zrotation Xrotation Yrotation
                  End Site
                  {
                    OFFSET 1.62519 -0.234802 1.16502
                  }
                }
              }
              JOINT lMid1
              {
                OFFSET 8.24714 1.18213 3.41376
                CHANNELS 3 Zrotation Xrotation Yrotation
                JOINT lMid2
                {
                  OFFSET 3.10165 -0.590103 1.0647
                  CHANNELS 3 Zrotation Xrotation Yrotation
                  End Site
                  {
                    OFFSET 2.48547 -0.328903 0.83742
                  }
                }
              }
              JOINT lRing1
              {
                OFFSET 8.82822 0.546677 1.51678
                CHANNELS 3 Zrotation Xrotation Yrotation
                JOINT lRing2
                {
                  OFFSET 2.60934 -0.819778 -0.0198488
                  CHANNELS 3 Zrotation Xrotation Yrotation
                  End Site
                  {
                    OFFSET 2.33842 -0.294052 0.168128
                  }
                }
              }
              JOINT lPinky1
              {
                OFFSET 8.27202 -0.0477905 -0.4584
                CHANNELS 3 Zrotation Xrotation Yrotation
                JOINT lPinky2
                {
                  OFFSET 1.82734 -0.647385 -0.700984
                  CHANNELS 3 Zrotation Xrotation Yrotation
                  End Site
                  {
                    OFFSET 1.69225 -0.51767 -0.607171
                  }
                }
              }
            }
          }
        }
      }
    }
  }
  JOINT rButtock
  {
    OFFSET -8.77824 4.35084 1.2192
    CHANNELS 3 Zrotation Xrotation Yrotation
    JOINT rThigh
    {
      OFFSET 0 -1.70687 -2.19456
      CHANNELS 3 Zrotation Xrotation Yrotation
      JOINT rShin
      {
        OFFSET 0 -36.8199 0.73152
        CHANNELS 3 Zrotation Xrotation Yrotation
        JOINT rFoot
        {
          OFFSET 0.73152 -45.1104 -5.12064
          CHANNELS 3 Zrotation Xrotation Yrotation
          End Site
          {
            OFFSET -1.1221 -3.69964 12.103
          }
        }
      }
    }
  }
  JOINT lButtock
  {
    OFFSET 8.77824 4.35084 1.2192
    CHANNELS 3 Zrotation Xrotation Yrotation
    JOINT lThigh
    {
      OFFSET 0 -1.70687 -2.19456
      CHANNELS 3 Zrotation Xrotation Yrotation
      JOINT lShin
      {
        OFFSET 0 -36.8199 0.73152
        CHANNELS 3 Zrotation Xrotation Yrotation
        JOINT lFoot
        {
          OFFSET -0.73152 -45.1104 -5.12064
          CHANNELS 3 Zrotation Xrotation Yrotation
          End Site
          {
            OFFSET 1.1221 -3.69964 12.103
          }
        }
      }
    }
  }
}
MOTION
Frames:	6
Frame Time:	0.00833333
-91.78309999999999 83.71929999999999 16.750799999999998 -96.192859 85.406031 -97.869267 10.283799 5.460757 -0.558067 -8.376088 -5.56806 12.126643 -7.552207 24.35573 -132.250335 8.649948 28.819516 107.286948 0.001985 -0.0 -0.002611 0.001985 -0.0 -0.002611 4.239811 -44.742822 -8.646482 -82.39139 -7.904331 -145.765301 24.839727 -4.081519 -59.889094 166.347052 -13.255251 146.953451 4.417065 -4.40055 -0.512608 21.355229 -40.34835 -18.677622 159.639349 -69.972926 102.393657 -178.854891 -47.822193 109.871957 -169.090788 -33.247095 145.375521 7.003312 -11.635801 -0.81138 -114.667436 66.73181 135.09277 -80.188987 84.443923 89.272265 -26.564988 -38.860924 -25.605416 -146.586417 11.588408 -143.350807 142.314576 40.593086 -146.689259 106.004243 45.664699 -75.199414 -132.269923 -81.550155 29.284769 -160.706377 -27.344284 -142.910611 143.807795 16.628221 -83.799471 142.87853 -5.958939 -70.011963 13.870856 18.81517 -9.290609 -2.972715 8.803632 -0.995708 -173.122755 -66.297636 -137.614635 161.410683 1.305368 -142.326778 145.119569 0.18531 179.186915 -11.945964 52.755848 2.720864 145.498715 13.10378 142.111148 85.083339 -51.98856 84.444545 -179.997418 75.749919 -0.002278 -176.777929 47.149318 -47.292259 -26.000793 40.688852 -104.847284 84.946436 -15.153669 167.045383 -0.00972 -0.000277 -0.00729 -2.466633 -8.985749 -0.433926 -20.370759 52.310049 -77.962359 162.397439 10.673429 -106.589217
-90.1608 83.4199 17.089399999999998 -80.547166 84.698841 -82.007902 13.309896 3.359366 -76.08798 1.303161 -11.216348 88.360723 -3.922309 6.502037 -3.774568 13.300258 -5.756964 -20.252866 -0.002032 0.0 -0.000274 0.003663 -0.0 -0.00018 -143.620339 38.23336 148.080542 97.086987 -14.380142 141.437663 2.817407 -43.862808 31.372106 -7.90039 41.494315 3.877036 4.530152 -4.514395 -0.521382 -100.75369 15.728278 91.400349 37.216329 -57.917596 -0.640968 -127.462545 27.537613 103.700502 -10.97591 25.7899 7.639935 -55.93292 62.324638 49.256037 -72.756912 -72.144218 -89.77175 13.900244 29.735831 -0.547376 1.134043 3.040373 1.045753 -22.805642 -40.173807 -23.481737 0.048791 0.29245 -0.064664 113.892649 -17.378755 -174.265847 -19.481625 -58.860625 146.024447 -162.637222 -23.605563 -144.049594 -11.110136 -11.092093 0.639494 108.014404 13.975888 -96.771902 117.900526 27.949298 -99.678152 8.787332 25.040014 0.340607 125.643291 49.839511 -115.273619 -14.169 -31.88798 0.99573 69.296198 72.946986 -87.016717 81.033619 83.124747 -89.963942 8.188301 -17.576361 7.729596 -20.699811 60.723154 -9.466378 -0.0 8.3e-05 0.000639 2.051893 -27.307378 0.977886 13.675828 36.805173 -80.779089 61.711739 36.958209 40.704888 179.992749 75.748254 0.004961 -179.859249 63.284685 22.719523 32.191004 61.875317 117.535396 92.733953 47.973425 174.699833
-88.5771 83.1334 17.4147 -69.940985 83.798424 -71.057647 13.877071 2.482321 -87.415435 3.240128 -10.583385 100.043535 5.182037 8.108086 48.632549 -2.288611 -8.207578 -73.432885 -0.003156 0.0 -0.001187 -0.003156 0.0 -0.001187 -0.04894 0.292423 0.064801 -79.655112 -0.837629 171.431658 15.850348 -7.558444 -63.310309 159.960063 -26.974678 143.43944 2.43608 -2.418833 -0.324301 -131.390161 -28.013842 116.729609 166.19802 -67.455686 107.48181 -82.967936 54.685902 68.972614 -15.423431 32.961512 11.296216 -145.770061 35.18861 132.741111 -73.163385 -72.142019 -90.198348 -143.407445 62.554116 162.978015 -46.799326 -48.62613 -45.558653 -5.261324 -19.153726 -8.13475 -3.231141 -26.298096 5.157266 -62.355361 27.078839 18.785293 165.430991 34.406618 -11.767761 -148.507304 -46.209554 -132.730732 169.561234 -7.243576 -89.928702 125.898492 11.721535 -60.423385 166.821894 -43.97374 -122.061749 -83.920866 -68.571008 -29.678541 36.036287 51.722872 -29.832842 1.161733 12.655906 -2.269176 0.021043 -1.726174 0.541659 -9.300478 13.416497 -1.762139 5.646635 -12.86134 5.301112 -8.13017 16.905094 -4.330369 0.000618 -0.000486 -0.000794 2.252477 -26.35931 1.040624 16.08579 36.370809 -85.017896 63.98216 40.234604 42.248418 -179.987368 75.750338 -0.011146 -172.180387 59.26968 -6.653154 -18.715502 57.883885 18.969759 -45.588135 -5.642063 11.036604
-87.00489999999999 82.883 17.7846 -64.520082 82.451992 -65.268809 9.794414 2.321203 82.453115 -4.84123 4.905627 -69.738122 -10.764479 19.510691 -98.50296 13.765105 23.759539 74.997841 0.000291 -0.0 -0.004043 -0.000592 -0.0 0.002949 -136.302682 48.980028 140.374068 -125.969549 25.903507 64.863534 -178.195101 80.63536 -145.926332 -9.535166 47.109373 4.929634 -171.707373 -9.387993 89.948118 144.685071 -47.341989 97.731379 -90.226081 41.072338 75.796419 -6.088555 18.814825 -0.552877 -0.219887 0.638366 0.123249 9.132045 -18.170794 -1.498319 -72.351396 72.974648 90.218178 5.866962 0.512747 -4.413385 -81.324257 -51.182602 -79.740688 -2.75412 -14.244165 -6.238634 158.514404 -30.702141 -167.038518 41.07425 -8.444668 11.729256 -15.863083 -68.439952 150.348882 -161.287087 -27.354613 -142.703424 -87.247655 -50.689185 -36.415581 12.998841 -64.443127 39.649427 159.78459 -32.611198 -122.692013 -86.102896 -69.434277 -32.541437 -173.123829 -66.297808 -137.614772 154.157137 19.982606 -138.434773 69.298221 72.946657 -87.016979 73.315866 -82.546382 90.41237 -12.989583 44.344035 -10.762339 -23.163406 67.471634 -8.11128 -179.815589 75.750486 -0.142136 -176.425191 50.369649 -0.0 29.433109 27.051259 19.679999 175.412403 -14.23309 53.165825 -179.987649 75.750805 -0.010898 -166.084599 54.717521 -16.883614 -30.87983 65.482856 89.370068 -2.01574 10.382014 -60.929646
-85.37700000000001 82.70100000000001 18.1663 -64.229012 80.779419 -64.735491 13.399266 4.229482 0.0 -7.899968 -6.596935 12.100546 1.894848 25.503642 174.718317 -12.381717 20.738041 165.413395 0.001275 -0.0 -0.001215 0.000488 0.0 0.000269 -159.221624 -48.028641 170.414201 -40.434749 20.298139 -48.756293 51.748973 -8.605318 -32.763147 175.900706 20.36923 152.231967 -103.200108 36.33137 60.111077 -27.039956 -11.145758 32.960792 159.641174 -69.973261 102.395966 -2.181052 28.56731 0.944096 -86.296024 60.960709 77.856908 -128.939224 51.957251 118.322403 -0.022691 -1.726169 -0.541651 11.250817 -13.787292 -1.716021 7.222389 22.273937 6.418517 -24.674397 -41.250776 -24.96761 155.41687 -2.951443 -161.718616 -146.951349 16.391632 -163.112841 3.362641 -42.959171 -124.347354 5.85425 32.117208 -2.505687 93.743823 37.963627 -53.548385 52.757893 -3.064263 -45.605375 83.731977 42.329852 -69.990281 6.247581 18.718214 0.122747 -10.385819 -32.499885 3.262107 154.176074 20.058768 -138.682341 145.121948 1.89435 179.722375 155.685143 1.329486 179.39513 133.876403 -15.639068 131.333835 -45.996335 79.984057 9.159869 -179.995862 75.750364 -0.004269 -174.862354 49.194378 176.359307 -36.165909 -37.726991 -64.853278 -47.126263 10.749336 -131.252509 0.000651 0.000868 -0.000838 12.408983 -23.626557 28.767208 21.793497 69.052308 -43.16584 154.719871 -40.273303 -31.013159
-83.6546 82.6926 18.526699999999998 -66.679769 78.730603 -67.255851 15.6969 4.465 -0.0 -8.184421 -7.356476 12.195647 -10.184284 21.495671 -109.414469 7.822513 26.476494 88.137955 0.00079 0.0 0.005176 0.001062 -0.0 -0.000338 -155.445873 -3.134493 161.757773 -82.58976 -75.874858 -13.327552 37.349999 54.794323 -95.662036 161.565373 -21.673753 145.794097 -78.030615 38.689652 42.412586 -99.048229 -7.456352 71.988568 -138.493581 4.895858 114.863952 1.712315 13.709144 -6.488414 -167.37616 -28.008368 145.26896 2.794192 1.007683 0.484745 -145.122486 2.056435 -179.775273 11.959952 40.332319 -4.401802 -144.582236 10.2181 -141.295582 -76.231474 -52.92785 -75.897391 40.764067 63.150136 -43.382622 84.945721 24.476337 -117.097587 -53.034548 -69.638736 119.908219 -170.118877 -5.938594 -147.301766 -82.305222 -50.136516 -32.954743 12.364238 -64.555976 40.456204 -73.419096 -73.571817 -26.562151 156.540767 -15.466957 -115.470394 -6.907841 -21.624131 2.811015 145.23195 36.296207 -132.164609 145.120074 0.226409 179.199951 -11.907227 29.602448 5.63865 138.44345 -6.230768 135.660601 147.445886 12.447953 141.942512 -0.0 -0.000277 -0.00047 6.157285 -24.940493 -165.649429 -36.625574 -22.272991 -157.027306 70.210222 -76.291198 2.663991 -0.0 -0.000277 -0.00047 16.617357 -27.750257 89.262829 74.283462 21.01017 -94.423301 64.388292 -0.420256 -32.619622
